<?xml version="1.0" encoding="UTF-8"?>
<svg id="Layer_2" data-name="Layer 2" xmlns="http://www.w3.org/2000/svg" xmlns:xlink="http://www.w3.org/1999/xlink" viewBox="0 0 429.71 403.64">
  <defs>
    <style>
      .cls-1 {
        fill: url(#linear-gradient);
      }
    </style>
    <linearGradient id="linear-gradient" x1="0" y1="218.48" x2="429.71" y2="218.48" gradientTransform="translate(0 420.3) scale(1 -1)" gradientUnits="userSpaceOnUse">
      <stop offset="0" stop-color="#ed2024"/>
      <stop offset=".16" stop-color="#f04e23"/>
      <stop offset=".41" stop-color="#f47d20"/>
      <stop offset=".54" stop-color="#f78d1e"/>
      <stop offset=".64" stop-color="#f68f1f"/>
      <stop offset=".72" stop-color="#f5951f"/>
      <stop offset=".79" stop-color="#f49f20"/>
      <stop offset=".85" stop-color="#f3ae21"/>
      <stop offset=".91" stop-color="#f2c122"/>
      <stop offset=".97" stop-color="#f1d824"/>
      <stop offset="1" stop-color="#f0e925"/>
    </linearGradient>
  </defs>
  <g id="Layer_1-2" data-name="Layer 1">
    <path class="cls-1" d="m214.99,207.8l-109.62,189.86c-2.14,3.7-6.09,5.98-10.36,5.98H11.98c-9.21,0-14.96-9.97-10.36-17.94l102.71-177.89c2.14-3.7,2.14-8.26,0-11.96L1.62,17.94C-2.98,9.96,2.77,0,11.98,0h83.03c4.27,0,8.22,2.28,10.36,5.98l109.61,189.86c2.14,3.7,2.14,8.26,0,11.96ZM308.13,0h-83.04C215.88,0,210.13,9.97,214.73,17.94l102.71,177.89c2.14,3.7,2.14,8.26,0,11.96l-102.71,177.91c-4.6,7.98,1.15,17.94,10.36,17.94h83.04c4.27,0,8.22-2.28,10.36-5.98l109.62-189.86c2.14-3.7,2.14-8.26,0-11.96L318.49,5.98C316.36,2.28,312.41,0,308.13,0ZM95.01,0H11.98C2.77,0-2.98,9.97,1.62,17.94l102.71,177.89c2.14,3.7,2.14,8.26,0,11.96L1.62,385.7c-4.6,7.98,1.15,17.94,10.36,17.94h83.03c4.27,0,8.22-2.28,10.36-5.98l109.61-189.86c2.14-3.7,2.14-8.26,0-11.96L105.37,5.98C103.24,2.28,99.29,0,95.01,0ZM95.01,0H11.98C2.77,0-2.98,9.97,1.62,17.94l102.71,177.89c2.14,3.7,2.14,8.26,0,11.96L1.62,385.7c-4.6,7.98,1.15,17.94,10.36,17.94h83.03c4.27,0,8.22-2.28,10.36-5.98l109.61-189.86c2.14-3.7,2.14-8.26,0-11.96L105.37,5.98C103.24,2.28,99.29,0,95.01,0ZM308.13,0h-83.04C215.88,0,210.13,9.97,214.73,17.94l102.71,177.89c2.14,3.7,2.14,8.26,0,11.96l-102.71,177.91c-4.6,7.98,1.15,17.94,10.36,17.94h83.04c4.27,0,8.22-2.28,10.36-5.98l109.62-189.86c2.14-3.7,2.14-8.26,0-11.96L318.49,5.98C316.36,2.28,312.41,0,308.13,0ZM95.01,0H11.98C2.77,0-2.98,9.97,1.62,17.94l102.71,177.89c2.14,3.7,2.14,8.26,0,11.96L1.62,385.7c-4.6,7.98,1.15,17.94,10.36,17.94h83.03c4.27,0,8.22-2.28,10.36-5.98l109.61-189.86c2.14-3.7,2.14-8.26,0-11.96L105.37,5.98C103.24,2.28,99.29,0,95.01,0Z"/>
  </g>
</svg>